<svg id="account" xmlns="http://www.w3.org/2000/svg" viewBox="0 0 39 39"><g><path fill="white" stroke="white" d="M19.5.5A18.977 18.977 0 0 0 6.348 33.18a.4.4 0 0 0 .158.148 18.887 18.887 0 0 0 25.97 0 .4.4 0 0 0 .158-.148A18.965 18.965 0 0 0 19.5.5Zm0 37.073a17.948 17.948 0 0 1-12.243-4.82 12.493 12.493 0 0 1 24.487 0 17.948 17.948 0 0 1-12.244 4.82Zm-6.951-22.707a6.951 6.951 0 1 1 6.951 6.951 6.954 6.954 0 0 1-6.951-6.951Zm19.973 17.128a13.4 13.4 0 0 0-10.056-9.834 7.878 7.878 0 1 0-5.932 0 13.4 13.4 0 0 0-10.056 9.834 18.073 18.073 0 1 1 26.044 0Z"/></g></svg>