<svg id="arrowDown" xmlns="http://www.w3.org/2000/svg" viewBox="0 0 121 80"><defs><clipPath id="a"><path fill="currentColor" d="M0 0h121.818v78.602H0z"/></clipPath></defs><g><g><path fill="currentColor" d="m60.909 37.124-28.435-7.771 14.218 24.624L60.909 78.6l14.216-24.623 14.218-24.624Z"/><path fill="currentColor" d="m52.339 0 2.932 45.587h11.276L69.48 0Z"/><g><g fill="currentColor" clip-path="url('#a')"><path d="M30.462 76.511H21.4C5.559 65.163 0 53.131 0 39.194S5.559 13.225 21.4 1.877h9.063C13.1 13.377 7.387 25.715 7.387 39.194S13.1 65.011 30.462 76.511"/><path d="M91.355 1.877h9.064c15.839 11.348 21.4 23.38 21.4 37.317s-5.559 25.969-21.4 37.317h-9.064c17.364-11.5 23.075-23.837 23.075-37.317s-5.711-25.817-23.075-37.317"/></g></g></g><g><path fill="currentColor" d="m91.99 2.301-.635-.425h9.063q.3.212.587.425Zm-39.5 0-.148-2.3h17.142l-.148 2.3Zm-31.673 0q.291-.212.587-.425h9.063c-.213.141-.426.283-.635.425Z"/></g></g></svg>