<svg id="logo" xmlns="http://www.w3.org/2000/svg" viewBox="0 0 184.35 75"><defs><clipPath id="a"><path fill="currentColor" d="M0 0h184.352v75H0z"/></clipPath></defs><g fill="white" clip-path="url('#a')"><path d="M64.014 2.576 65.029 0h-16.7l-1.746 4.433c-1.965 5-4.19 10.658-5.973 15.248q-1.475 0-2.951-.015c-3.869-.025-7.87-.051-11.821.183A14.087 14.087 0 0 0 13.4 28.29c-1.524 3.287-2.843 6.7-4.119 10a417.524 417.524 0 0 1-1.453 3.727L6.735 44.77C4.741 49.787 2.679 54.97.718 60.11a10.5 10.5 0 0 0 .411 8.554 11.131 11.131 0 0 0 10.024 6.3 11.263 11.263 0 0 0 6.865-2.352c.9-.687 1.755-1.415 2.586-2.119q.465-.393.931-.784l.1-.087a5.459 5.459 0 0 0 .9 2.433 5.22 5.22 0 0 0 4.269 2.3l8.88.045.473-1.2C40.722 61.615 49.9 38.346 56.605 21.356c3.621-9.179 6.48-16.424 7.408-18.78M17.558 59.609l12.8-32.487a3.386 3.386 0 0 1 6.3 2.48L23.841 62.086a3.377 3.377 0 0 1-6.283-2.477"/><path d="m156.848 57.531-.348 1.442a16.966 16.966 0 0 1-2.428 5.628 9.809 9.809 0 0 1-6.276 4.056 1.25 1.25 0 0 1-1.394-1.681l4.647-12h13.919a14.652 14.652 0 0 0 13.637-9.295l5.328-13.564a5.347 5.347 0 0 0 .3-1.058c.612-3.552-1.214-6.907-4.886-8.975a22.654 22.654 0 0 0-5.472-2.2 26.519 26.519 0 0 0-7.712-.758c-1.449.008-2.78.065-4.069.175a33.47 33.47 0 0 0-7.6 1.472 15.79 15.79 0 0 0-9.13 6.818 12.508 12.508 0 0 0-.94 1.681c-.116.252-.215.482-.3.7-2.5 6.393-5.052 12.888-7.525 19.168q-2.123 5.394-4.243 10.788a10.365 10.365 0 0 0-.731 3.845 9.161 9.161 0 0 0 3.165 6.97 17.067 17.067 0 0 0 7.741 3.559 30.448 30.448 0 0 0 6.431.694h.051a43.141 43.141 0 0 0 10.587-1.691l.1-.027a17.4 17.4 0 0 0 11.345-10.334l2.159-5.417Zm11.611-28.036-6.794 17.3a3.41 3.41 0 0 1-6.349-2.488l6.763-17.3a3.39 3.39 0 0 1 3.176-2.168h.031a3.409 3.409 0 0 1 3.174 4.656"/><path d="M95.269 34.717c2.156-5.462.436-10.189-4.718-12.968a24.865 24.865 0 0 0-11.035-2.564h-.053c-6.441-.059-11.794 1.138-16.367 3.658a13.843 13.843 0 0 0-6.636 7.135c-2.5 6.4-5.056 12.9-7.529 19.18q-2.121 5.388-4.238 10.777a9.435 9.435 0 0 0 2.434 10.815 17.048 17.048 0 0 0 7.721 3.554 30.309 30.309 0 0 0 6.486.688 33.737 33.737 0 0 0 4.356-.287 30.337 30.337 0 0 0 11.242-3.359 15.329 15.329 0 0 0 7.152-8.173c2.724-7.081 5.566-14.257 8.315-21.2q1.437-3.628 2.87-7.256M59.452 64.676 74.3 26.987a3.386 3.386 0 0 1 6.3 2.481L65.758 67.16a3.389 3.389 0 1 1-6.306-2.484"/><path d="M178.162 62.613a6.193 6.193 0 1 0 6.193 6.193 6.2 6.2 0 0 0-6.193-6.193"/><path d="M137.949 23.624a11.2 11.2 0 0 0-9.548-4.487 12.911 12.911 0 0 0-7.822 3.606l-.625.533 1.636-4.094h-4.287l-12.629-.065-1.361 3.46c-.148.347-.307.748-.457 1.129l-9.264 23.556-7 17.8-.5 1.274a5.88 5.88 0 0 0 .5 5.291c.036.057.07.114.108.17a5.882 5.882 0 0 0 4.853 2.578l7.815.019 17.263-43.5a3.386 3.386 0 0 1 6.3 2.481l-13.056 33.388a5.584 5.584 0 0 0 .443 5.225 5.78 5.78 0 0 0 4.87 2.4l8.3.009.47-1.2c.453-1.154 1.577-3.975 3-7.545 4.24-10.643 11.336-28.455 12.566-31.968a10.672 10.672 0 0 0-1.576-10.06"/></g><script xmlns=""/></svg>